<?xml version="1.0" encoding="utf-8"?>
<!-- Generator: Adobe Illustrator 17.1.0, SVG Export Plug-In . SVG Version: 6.00 Build 0)  -->
<!DOCTYPE svg PUBLIC "-//W3C//DTD SVG 1.1//EN" "http://www.w3.org/Graphics/SVG/1.1/DTD/svg11.dtd">
<svg version="1.1" id="Layer_1" xmlns="http://www.w3.org/2000/svg" xmlns:xlink="http://www.w3.org/1999/xlink" x="0px" y="0px"
	 viewBox="0 0 600 350" enable-background="new 0 0 600 350" xml:space="preserve">
<path d="M598.2,105.8c-1.9-12.6-6.7-28.1-15.3-47.1c-8.6-19-19.2-31.5-31-37.7c-11.8-6.3-24.8-6.3-38-0.2
	c-13.2,6-26.5,18.1-39.2,35.9c-12.6,17.8-24.5,41.4-34.7,70.6c0,0-0.9,2.6-2.2,4.3c-1.3,1.7-3.1,2.6-4.8-0.9
	c-1.7-3.5-1.1-11.5-4.4-26.7c-3.5-16-10.2-34.5-15.3-45.1c-4.6-9.7-11.5-21.1-18.2-28c-4.1-4.1-8.4-7.4-12.8-9.8
	c-11.8-6.3-24.8-6.3-38-0.2c-13.2,6-26.5,18.1-39.2,35.9c-12.6,17.8-24.5,41.4-34.6,70.6c0,0-0.9,2.6-2.3,4.3
	c-0.7,0.8-1.4,1.5-2.2,1.5c-0.8,0-1.7-0.7-2.5-2.4c-1.7-3.5-1.1-11.5-4.4-26.7c-3.5-16-10.2-34.5-15.3-45.1
	c-4.6-9.7-11.5-21.1-18.2-28c-4.1-4.1-8.4-7.4-12.8-9.8c-11.8-6.3-24.8-6.3-38-0.2c-13.2,6-26.5,18.1-39.2,35.9
	C123,74.4,111.2,98,101,127.2c0,0-0.9,2.6-2.3,4.3c-0.6,0.8-1.4,1.4-2.1,1.5c-0.8-0.1-1.6-0.7-2.4-2.4c0,0,0,0-0.1,0
	c-3.4-6.9,9-55.6,10.1-124.3l-58.7,6.7c0,0-93.4,316.3-6.8,330.9c0,0,0.2,0.1,0.5,0.1c0,0,0,0,0,0c0.2,0,0.5,0.1,0.8,0.1
	c0,0,0.1,0,0.1,0c0.2,0,0.3,0,0.5,0.1c0,0,0,0,0,0c0.2,0,0.4,0,0.6,0c0.1,0,0.1,0,0.2,0c0.2,0,0.5,0,0.7,0h0c0,0,0,0,0,0
	c0.3,0,0.7,0,1,0c0.1,0,0.3,0,0.4,0c0.2,0,0.5,0,0.7-0.1c0.1,0,0.2,0,0.3,0c3.6-0.5,8.5-2.1,13.6-6.7S68.7,325,73,312.6
	c4.3-12.4,7.7-29.6,9-53.4c0-0.2,0-0.5,0.1-0.7l6.2-42.7c3.1-15,7.1-31,11.8-47c9.8-33.4,22.3-66.8,34.6-91l0-0.3
	c11.1-21.6,22-35.7,30.5-35.3c0.9,0,1.8,0.2,2.6,0.6c9,3.9,17.4,40,14.5,77.4c-2.9,37.4-11.5,138.3-8.7,168.4l0,0.1
	c2.9,30,12.9,51.4,34.5,55.1c0,0,1.3,0.4,3.5,0.4c0.7,0,1.6-0.1,2.5-0.2c3.6-0.5,8.5-2.1,13.6-6.7c5.1-4.6,10.3-12.2,14.6-24.6
	c4.3-12.4,7.7-29.6,9-53.4c1.3-23.8,8.4-57.1,18.1-90.5c9.8-33.4,22.3-66.8,34.6-91l0-0.1c12.3-24.1,24.4-38.8,33.3-34.9
	c9,3.9,17.4,40,14.5,77.4c-2.9,37.4-11.5,138.5-8.7,168.5c2.9,30,12.9,51.4,34.5,55.1c0,0,2.4,0.7,6,0.2c3.6-0.5,8.5-2.1,13.6-6.7
	c5.1-4.6,10.3-12.2,14.6-24.6c4.3-12.4,7.7-29.6,9-53.4c1.3-23.8,8.4-57.1,18.1-90.5c9.8-33.4,22.3-66.8,34.6-91
	c12.3-24.1,24.4-38.9,33.4-35c9,3.9,14.8,26.6,14.5,77.4c0,0-0.3,2.2-0.2,5.6c0.1,3.4,0.6,7.8,2.3,12.3c1.7,4.4,4.6,8.9,9.4,12.2
	c4.8,3.3,11.6,5.4,21.1,5.3c9.5-0.1,18.2-1.5,25.3-4.7c7.2-3.2,12.8-8.1,16.2-15.5C598.9,128.1,600,118.4,598.2,105.8z"/>
</svg>
